<svg width="100" height="100" viewBox="0 0 100 100" fill="none" xmlns="http://www.w3.org/2000/svg">
<rect width="100" height="100" fill="white"/>
<path d="M56.6289 50L75.1836 31.4453C76.0642 30.5662 76.5595 29.3734 76.5606 28.1291C76.5617 26.8849 76.0685 25.6911 75.1894 24.8105C74.3104 23.9299 73.1175 23.4346 71.8733 23.4335C70.629 23.4324 69.4353 23.9256 68.5547 24.8047L50 43.3594L31.4453 24.8047C30.5647 23.9241 29.3703 23.4294 28.125 23.4294C26.8796 23.4294 25.6853 23.9241 24.8047 24.8047C23.9241 25.6853 23.4294 26.8796 23.4294 28.125C23.4294 29.3703 23.9241 30.5647 24.8047 31.4453L43.3594 50L24.8047 68.5547C23.9241 69.4353 23.4294 70.6296 23.4294 71.875C23.4294 73.1203 23.9241 74.3147 24.8047 75.1953C25.6853 76.0759 26.8796 76.5706 28.125 76.5706C29.3703 76.5706 30.5647 76.0759 31.4453 75.1953L50 56.6406L68.5547 75.1953C69.4353 76.0759 70.6296 76.5706 71.875 76.5706C73.1203 76.5706 74.3147 76.0759 75.1953 75.1953C76.0759 74.3147 76.5706 73.1203 76.5706 71.875C76.5706 70.6296 76.0759 69.4353 75.1953 68.5547L56.6289 50Z" fill="black"/>
</svg>
